<?xml version="1.0" standalone="no"?><!DOCTYPE svg PUBLIC "-//W3C//DTD SVG 1.1//EN" "http://www.w3.org/Graphics/SVG/1.1/DTD/svg11.dtd"><svg t="1506874136074" class="icon" style="" viewBox="0 0 1024 1024" version="1.1" xmlns="http://www.w3.org/2000/svg" p-id="2387" xmlns:xlink="http://www.w3.org/1999/xlink" width="32" height="32"><defs><style type="text/css"></style></defs><path d="M834.800917 152.249543 187.951673 152.249543c-67.957765 0-122.958426 55.096852-122.958426 122.959449l0 475.033064c0 67.958788 55.095829 122.958426 122.958426 122.958426l646.849244 0c67.957765 0 122.959449-55.094806 122.959449-122.958426L957.760366 275.208992C957.760366 207.344349 902.758682 152.249543 834.800917 152.249543L834.800917 152.249543zM316.860624 309.85814c34.555004 0 62.584384 28.028357 62.584384 62.58336s-28.02938 62.58336-62.584384 62.58336c-34.55398 0-62.581314-28.028357-62.581314-62.58336S282.306644 309.85814 316.860624 309.85814L316.860624 309.85814zM895.753127 646.578068c-8.06263 6.238075-19.677155 4.606925-25.821085-3.456728l-137.931442-182.182272c-0.384763-0.575098-38.874379-49.91176-85.619006-45.207621-38.011732 4.318352-75.349105 44.825928-107.984387 117.198236-34.555004 76.885088-68.438719 117.005854-106.544595 126.414131-43.192731 10.462283-80.436984-18.814508-119.886461-50.008974l-4.990664-3.934612c-46.169529-36.1882-68.246337-27.932166-157.128667 59.127655-3.552919 3.551896-8.256034 5.279237-12.862959 5.279237-4.799306 0-9.598612-1.823532-13.149485-5.566786-7.102768-7.296173-7.008624-19.004843 0.287549-26.109658 80.723509-79.091336 130.060171-121.036657 205.601658-61.717643l5.086855 3.933589c33.689287 26.588565 62.774719 49.52802 88.306208 43.193755 25.435299-6.239098 52.888558-41.75294 81.684394-105.680924 38.874379-86.291318 85.139076-133.035946 137.740084-138.795113 67.670216-7.199982 116.910687 56.919361 118.925576 59.703777l137.742131 181.987844C905.35174 628.91478 903.814734 640.435161 895.753127 646.578068L895.753127 646.578068z" p-id="2388"></path></svg>